<?xml version="1.0" encoding="UTF-8" standalone="no"?>
<!-- Generator: Adobe Illustrator 16.0.0, SVG Export Plug-In . SVG Version: 6.00 Build 0)  -->

<svg
   xmlns:dc="http://purl.org/dc/elements/1.1/"
   xmlns:cc="http://creativecommons.org/ns#"
   xmlns:rdf="http://www.w3.org/1999/02/22-rdf-syntax-ns#"
   xmlns:svg="http://www.w3.org/2000/svg"
   xmlns="http://www.w3.org/2000/svg"
   xmlns:sodipodi="http://sodipodi.sourceforge.net/DTD/sodipodi-0.dtd"
   xmlns:inkscape="http://www.inkscape.org/namespaces/inkscape"
   version="1.1"
   id="Capa_1"
   x="0px"
   y="0px"
   width="40"
   height="40.000004"
   viewBox="0 0 40.000001 40.000005"
   xml:space="preserve"
   sodipodi:docname="icon.svg"
   inkscape:version="0.92.3 (2405546, 2018-03-11)"><metadata
   id="metadata45"><rdf:RDF><cc:Work
       rdf:about=""><dc:format>image/svg+xml</dc:format><dc:type
         rdf:resource="http://purl.org/dc/dcmitype/StillImage" /><dc:title></dc:title></cc:Work></rdf:RDF></metadata><defs
   id="defs43" /><sodipodi:namedview
   pagecolor="#ffffff"
   bordercolor="#666666"
   borderopacity="1"
   objecttolerance="10"
   gridtolerance="10"
   guidetolerance="10"
   inkscape:pageopacity="0"
   inkscape:pageshadow="2"
   inkscape:window-width="1366"
   inkscape:window-height="689"
   id="namedview41"
   showgrid="true"
   inkscape:zoom="7.4596203"
   inkscape:cx="20.757504"
   inkscape:cy="11.542908"
   inkscape:window-x="0"
   inkscape:window-y="24"
   inkscape:window-maximized="1"
   inkscape:current-layer="Capa_1"
   inkscape:snap-bbox="true"
   inkscape:bbox-paths="true"
   inkscape:bbox-nodes="true"
   inkscape:snap-bbox-edge-midpoints="true"
   inkscape:snap-bbox-midpoints="true"
   fit-margin-top="0"
   fit-margin-left="0"
   fit-margin-right="0"
   fit-margin-bottom="0"><inkscape:grid
     type="xygrid"
     id="grid4533"
     originx="4.9999994"
     originy="-14.999999" /></sodipodi:namedview>
<ellipse
   style="fill:#ffffff;fill-opacity:1;stroke:none;stroke-width:0.37820676;stroke-miterlimit:4;stroke-dasharray:none;stroke-opacity:1"
   id="path4535"
   cx="20"
   cy="20.000002"
   rx="19.810896"
   ry="19.810898" /><g
   id="g8"
   style="fill:#27ae60;fill-opacity:1;stroke:#2c3e50;stroke-width:0.40000001;stroke-miterlimit:4;stroke-dasharray:none;stroke-opacity:1"
   transform="translate(4.1818856,4.1793893)">
	<g
   id="g6"
   style="fill:#27ae60;fill-opacity:1;stroke:#2c3e50;stroke-width:0.40000001;stroke-miterlimit:4;stroke-dasharray:none;stroke-opacity:1">
		<circle
   cx="7.6760001"
   cy="7.0669999"
   r="0.82700002"
   id="circle2"
   style="fill:#27ae60;fill-opacity:1;stroke:#2c3e50;stroke-width:0.40000001;stroke-miterlimit:4;stroke-dasharray:none;stroke-opacity:1" />
		<path
   d="M 21.841,4.244 C 17.841,3.232 14.643,3.486 10.41,6.015 10.313,5.091 7.88,2.318 4.913,4.265 1.751,3.874 1.751,7.134 1.751,7.134 c 0,0 -1.728,3.039 -1.751,4.184 -0.016,0.766 0.446,0.973 0.888,1.105 2.285,-1.301 4.359,-0.992 6.044,-0.74 0.878,0.131 1.639,0.242 2.208,0.082 0.197,-0.057 0.404,0.06 0.46,0.258 0.056,0.197 -0.06,0.404 -0.257,0.461 -0.724,0.203 -1.557,0.08 -2.521,-0.064 -1.508,-0.225 -3.35,-0.486 -5.328,0.535 1.878,3.272 7.082,4.382 10.862,1.769 0.825,0.052 1.907,0.175 3.074,0.271 0.215,0.017 0.004,0.697 -0.205,1.375 -0.073,0.236 -2.863,0.82 -2.918,1.027 -0.101,0.389 2.537,0.072 2.725,0.341 0.187,0.271 -0.34,1.509 -0.097,2.094 0.162,0.389 1.48,-0.011 1.849,-0.926 0.186,-0.456 -0.593,-1.359 -0.42,-1.722 0.52,-1.083 0.974,-2.073 1.055,-2.071 0.541,0.017 1.08,0.018 1.604,-0.007 1.092,-0.05 2.146,-0.152 3.122,-0.237 0.124,-0.011 0.332,0.425 0.552,0.933 0.1,0.232 -1.828,0.584 -1.729,0.812 0.203,0.466 1.897,0.152 2.529,0.734 0.633,0.584 0.653,2.156 1.119,2.336 0.257,0.099 1.334,-0.674 1.119,-1.654 -0.314,-1.43 -2.036,-3.274 -1.946,-3.278 1.195,-0.055 2.188,0.002 2.87,0.355 2.53,1.309 0.682,11.047 -5.643,11.535 -3.445,0.265 -4.596,-2.491 -4.168,-4.028 0.423,-1.519 2.319,-2.345 3.634,-2.148 1.312,0.192 1.556,1.41 0.973,2.235 -0.077,0.109 -0.166,0.21 -0.261,0.304 -0.226,-0.229 -0.538,-0.371 -0.884,-0.371 -0.687,0 -1.242,0.557 -1.242,1.242 0,0.687 0.556,1.241 1.242,1.241 0.62,0 1.13,-0.455 1.223,-1.052 0.334,-0.083 0.664,-0.245 0.944,-0.536 1.118,-1.168 0.875,-3.26 -1.244,-3.978 -2.371,-0.802 -5.694,0.688 -5.792,3.218 -0.097,2.529 2.224,5.496 6.221,5.268 5.935,-0.342 10.204,-6.504 9.965,-12.192 -0.206,-4.819 -2.78,-9.83 -9.786,-11.601 z M 6.922,9.713 c -1.33,0 -2.408,-1.078 -2.408,-2.408 0,-1.33 1.078,-2.408 2.408,-2.408 1.329,0 2.407,1.078 2.407,2.408 10e-4,1.33 -1.077,2.408 -2.407,2.408 z"
   id="path4"
   style="fill:#27ae60;fill-opacity:1;stroke:#2c3e50;stroke-width:0.40000001;stroke-miterlimit:4;stroke-dasharray:none;stroke-opacity:1"
   inkscape:connector-curvature="0" />
	</g>
</g>
<g
   id="g10"
   transform="translate(4.9999993,23.363002)">
</g>
<g
   id="g12"
   transform="translate(4.9999993,23.363002)">
</g>
<g
   id="g14"
   transform="translate(4.9999993,23.363002)">
</g>
<g
   id="g16"
   transform="translate(4.9999993,23.363002)">
</g>
<g
   id="g18"
   transform="translate(4.9999993,23.363002)">
</g>
<g
   id="g20"
   transform="translate(4.9999993,23.363002)">
</g>
<g
   id="g22"
   transform="translate(4.9999993,23.363002)">
</g>
<g
   id="g24"
   transform="translate(4.9999993,23.363002)">
</g>
<g
   id="g26"
   transform="translate(4.9999993,23.363002)">
</g>
<g
   id="g28"
   transform="translate(4.9999993,23.363002)">
</g>
<g
   id="g30"
   transform="translate(4.9999993,23.363002)">
</g>
<g
   id="g32"
   transform="translate(4.9999993,23.363002)">
</g>
<g
   id="g34"
   transform="translate(4.9999993,23.363002)">
</g>
<g
   id="g36"
   transform="translate(4.9999993,23.363002)">
</g>
<g
   id="g38"
   transform="translate(4.9999993,23.363002)">
</g>
</svg>