<?xml version="1.0" standalone="no"?>
<!DOCTYPE svg PUBLIC "-//W3C//DTD SVG 20010904//EN"
 "http://www.w3.org/TR/2001/REC-SVG-20010904/DTD/svg10.dtd">
<svg version="1.0" xmlns="http://www.w3.org/2000/svg"
 width="700.000000pt" height="700.000000pt" viewBox="0 0 700.000000 700.000000"
 preserveAspectRatio="xMidYMid meet">
<metadata>
Created by potrace 1.11, written by Peter Selinger 2001-2013
</metadata>
<g transform="translate(0.000000,700.000000) scale(0.100000,-0.100000)"
fill="#000000" stroke="none">
<path d="M1895 5669 c-83 -8 -168 -34 -245 -75 -58 -31 -72 -34 -145 -34 -142
0 -241 -37 -332 -123 -87 -82 -141 -197 -162 -344 -7 -48 -31 -105 -105 -251
-159 -316 -212 -467 -203 -584 7 -99 51 -155 150 -188 36 -11 43 -10 87 14 77
42 226 94 335 118 150 32 360 30 620 -6 194 -28 334 -36 424 -26 35 4 46 1 55
-13 16 -27 -13 -44 -91 -53 -78 -8 -157 -2 -403 32 -160 22 -210 25 -370 21
-213 -5 -286 -20 -462 -94 l-107 -45 60 -89 c364 -543 1225 -691 1833 -315
l71 43 248 -22 c136 -13 251 -26 255 -29 7 -7 -24 -139 -40 -169 -12 -23 -22
-27 -262 -99 -219 -65 -256 -81 -256 -114 0 -55 77 -73 310 -74 80 0 152 -4
159 -9 13 -8 13 -27 -3 -139 -22 -154 -17 -212 21 -242 80 -63 286 34 352 165
29 58 25 91 -24 205 -19 45 -35 91 -35 103 0 12 37 96 83 187 l82 165 215 6
c118 4 297 14 398 23 101 9 188 14 194 10 14 -9 58 -106 52 -115 -2 -4 -53
-24 -112 -43 -133 -45 -172 -67 -172 -100 0 -54 38 -71 222 -96 138 -20 197
-37 231 -68 29 -26 62 -97 97 -212 54 -177 80 -210 154 -196 49 9 143 97 173
161 64 138 -6 331 -228 623 -27 36 -47 67 -45 69 10 10 200 2 271 -12 138 -26
202 -72 252 -181 63 -137 70 -416 18 -648 -158 -704 -626 -1166 -1180 -1166
-176 0 -345 58 -453 155 -61 55 -123 151 -153 237 -33 91 -32 230 0 313 44
111 206 244 346 285 122 35 265 30 332 -11 99 -62 122 -184 54 -296 l-20 -31
-48 25 c-41 21 -58 24 -118 20 -78 -4 -114 -19 -164 -69 -70 -68 -93 -183 -56
-276 21 -52 99 -124 153 -140 121 -37 240 12 298 122 22 42 38 59 73 76 146
71 231 214 231 386 0 218 -144 383 -397 456 -118 34 -312 32 -445 -5 -291 -80
-499 -269 -554 -504 -19 -81 -14 -234 11 -327 42 -154 130 -303 249 -422 136
-135 282 -219 471 -270 144 -38 379 -45 551 -16 398 68 768 285 1053 617 274
320 449 689 523 1104 30 168 32 514 4 691 -139 886 -702 1506 -1606 1769 -299
86 -550 125 -815 124 -261 -1 -455 -32 -698 -113 -156 -53 -389 -159 -526
-240 -30 -17 -55 -30 -56 -28 -1 2 -12 22 -24 45 -56 112 -184 227 -326 293
-116 55 -212 72 -330 59z m156 -310 c91 -23 193 -109 237 -200 114 -235 -36
-513 -295 -548 -165 -23 -324 65 -397 219 -28 58 -31 75 -31 160 0 86 3 101
32 162 82 175 260 255 454 207z"/>
<path d="M2005 5196 c-69 -34 -105 -89 -105 -159 0 -89 49 -155 131 -177 108
-29 209 44 217 159 5 71 -19 122 -74 160 -44 30 -125 38 -169 17z"/>
</g>
</svg>
